 <svg class="visuallyhidden" xmlns="http://www.w3.org/2000/svg" xmlns:xlink="http://www.w3.org/1999/xlink">
        <style>
            .visuallyhidden > g:not(:target) { display: none; }
        </style>

        <!-- Definições de símbolos -->
        <symbol id="caret-down" fill="none" viewBox="0 0 12 8">
            <path d="M10.59.59 6 5.17 1.41.59 0 2l6 6 6-6L10.59.59Z" fill="currentColor"/>
        </symbol>

        <symbol id="underline-scribbled" fill="none" viewBox="0 0 196 17">
            <path d="M4.396 5.48c1.55.056 3.096.032 4.648.036.627.001 1.26-.004 1.888-.014l8.33-.087c3.317-.036 6.641-.078 9.958-.126 4.745-.07 9.484-.145 14.222-.214 1.086-.015 2.172-.018 3.258-.027 2.762-.024 5.525-.047 8.287-.065 2.762-.024 5.525-.048 8.287-.066 1.078-.009 2.165-.03 3.243-.027l13.217.052c2.71.008 5.42.023 8.13.032 1.064.002 2.121-.002 3.184.01 4.261.076 8.515.14 12.775.215 4.203.069 8.405.142 12.607.21 1.108.02 2.221.058 3.328.083 2.745.072 5.483.139 8.228.21 4.267.11 8.527.22 12.794.324 1.39.04 2.788.084 4.186.13 2.919.088 5.838.182 8.758.27l.721.02c-6.577-.117-13.146-.236-19.723-.343-2.746-.044-5.491-.093-8.237-.137-1.187-.022-2.367-.05-3.554-.06-3.971-.034-7.948-.056-11.919-.09l-13.776-.1c-.772-.006-1.545.006-2.318.013-2.448.021-4.89.037-7.339.053-4.963.034-9.926.075-14.89.11-.736.008-1.465.027-2.201.045l-7.278.185-13.03.328c-1.196.028-2.393.09-3.589.13l-8.345.308c-3.537.132-7.075.252-10.606.396l-14.764.584-3.538.138c-2.116.082-4.226.231-6.342.353-.226.01-.419.118-.424.31-.006.193.18.317.405.335.771.05 1.543.095 2.306.145a.982.982 0 0 0-.167.493c-.017.612.65 1.237 1.474 1.22 6.03-.123 12.06-.27 18.095-.32 5.24-.044 10.473-.088 15.713-.138 5.795-.05 11.582-.102 17.376-.153l5.467-.05c.524-.001 1.05-.015 1.581-.011 9.325.072 18.65.149 27.975.22l14.948.118c1.8.017 3.599.034 5.398.062 9.534.157 19.068.308 28.609.466l12.258.194c3.489.053 6.977.135 10.467.132l8.65-.01c1.435.001 2.877.014 4.314-.019 3.273-.066 6.547-.137 9.821-.215 0 0 0 .006-.008.011a.873.873 0 0 0-.161.812c.087.268.306.501.608.651.28.139.722.225 1.046.138.719-.2 1.432-.407 2.145-.614-.015 0-.03.01-.045.016l.162-.046.184-.052c-.022.005-.044.016-.066.021.382-.114.764-.228 1.139-.342.397-.119.793-.232 1.19-.357.434-.135.847-.299 1.266-.457.472-.179.768-.596.779-.997a1 1 0 0 0-.187-.6c-.175-.25-.525-.508-.887-.57-.363-.06-.726-.105-1.096-.155a3.429 3.429 0 0 0-.247-.019c-.248-.007-.511.014-.744.019-.554.013-1.109.065-1.664.078-.452.015-.904.025-1.363.035l-3.661.1-.948.024a.852.852 0 0 0 .258-.344.766.766 0 0 0 .104-.326l.05-.242a.706.706 0 0 0-.057-.302c.03-.01.066-.02.096-.031.228-.101.422-.237.558-.41a.993.993 0 0 0 .228-.593.991.991 0 0 0-.194-.606c-.078-.082-.156-.163-.234-.25a1.65 1.65 0 0 0-.668-.325c-.469-.155-.956-.203-1.458-.217-.408-.012-.817 0-1.224-.006-.583-.017-1.173-.022-1.755-.039-.831-.018-1.661-.03-2.491-.053-2.192-.051-4.383-.108-6.575-.158-2.061-.048-4.121-.112-6.182-.17l-5.621-.16c-7.471-.183-14.934-.388-22.405-.538-5.601-.113-11.201-.227-16.801-.346-2.505-.048-5.003-.09-7.509-.122-5.616-.068-11.225-.13-16.841-.2-1.603-.016-3.205-.04-4.8-.056-.926-.01-1.859-.002-2.784 0-5.553.007-11.098.015-16.65.021l-5.08.01c-.947.001-1.902.025-2.85.032-5.51.076-11.028.146-16.54.223-2.85.038-5.693.087-8.536.149-4.87.1-9.748.205-14.619.305-4.22.084-8.442.146-12.663.219-.67.01-1.341.024-2.005.034-1.079.02-2.164.023-3.243.027-.962.006-1.924.002-2.884-.048-.09-.195-.332-.36-.61-.352-.62.023-1.24.056-1.86.09-.3.014-.565.125-.659.36-.102.264.1.58.448.653l.804.176c.26.053.544.078.806.102.705.07 1.418.102 2.131.123l.007.017Zm170.43 3.012 2.716.077c.075.16.195.305.352.423-.35.007-.7.014-1.05.016-.663-.002-1.319.002-1.982 0l-8.649.01c-1.319.002-2.639.022-3.957.001-2.061-.036-4.122-.066-6.183-.101-4.713-.077-9.418-.154-14.13-.225l-27.429-.437c-6.548-.107-13.098-.134-19.64-.183l-29.592-.227c-1.974-.016-3.957.03-5.933.047l-16.807.153-16.501.144c-.51.003-1.02.011-1.53.014 1.48-.05 2.968-.103 4.448-.146 5.178-.16 10.357-.324 15.542-.483l5.426-.17c.934-.03 1.866-.037 2.8-.056 5.387-.102 10.768-.2 16.155-.301 1.05-.022 2.108-.054 3.157-.058l4.547-.007c5.546-.013 11.098-.02 16.644-.033 1.224 0 2.441-.004 3.665-.01.321-.002.641.007.962.01.86.014 1.712.021 2.571.034 5.558.067 11.116.14 16.673.206 2.564.033 5.121.055 7.685.116 8.265.183 16.523.35 24.788.555 8.417.21 16.835.403 25.252.636v-.005Z" fill="#ED8534"/>
        </symbol>
        
        <!-- Exemplo de uso de um símbolo -->
        <g id="g-caret-down" style="color: #6C7179;">
            <use xlink:href="#caret-down"></use>
        </g>

        <g id="g-underline-scribbled">
            <use xlink:href="#underline-scribbled"></use>
         </g>
    </svg>